<svg xmlns="http://www.w3.org/2000/svg" width="1600" height="820" viewBox="0 0 1600 820" fill="none">
  <rect width="1600" height="820" rx="36" fill="#0A1219"/>
  <rect x="40" y="40" width="1520" height="740" rx="28" fill="#0D1821" stroke="#253847"/>
  <text x="90" y="110" fill="#EAF2F6" font-family="IBM Plex Sans, Arial, sans-serif" font-size="40" font-weight="600">Gather Flow</text>
  <text x="90" y="148" fill="#8FA6B6" font-family="IBM Plex Sans, Arial, sans-serif" font-size="22">From logical request to execution-ready output</text>
  <g font-family="IBM Plex Sans, Arial, sans-serif">
    <circle cx="170" cy="410" r="44" fill="#102633" stroke="#6AA5B7"/>
    <text x="148" y="418" fill="#A8D1DB" font-size="24" font-weight="700">01</text>
    <text x="100" y="490" fill="#F2F7FA" font-size="26" font-weight="600">Logical request</text>

    <circle cx="420" cy="410" r="44" fill="#102633" stroke="#6AA5B7"/>
    <text x="398" y="418" fill="#A8D1DB" font-size="24" font-weight="700">02</text>
    <text x="342" y="490" fill="#F2F7FA" font-size="26" font-weight="600">Metadata resolve</text>

    <circle cx="670" cy="410" r="44" fill="#102633" stroke="#6AA5B7"/>
    <text x="648" y="418" fill="#A8D1DB" font-size="24" font-weight="700">03</text>
    <text x="574" y="490" fill="#F2F7FA" font-size="26" font-weight="600">Plan compile</text>

    <circle cx="920" cy="410" r="44" fill="#102633" stroke="#6AA5B7"/>
    <text x="898" y="418" fill="#A8D1DB" font-size="24" font-weight="700">04</text>
    <text x="810" y="490" fill="#F2F7FA" font-size="26" font-weight="600">Mixed-tier retrieve</text>

    <circle cx="1170" cy="410" r="44" fill="#102633" stroke="#6AA5B7"/>
    <text x="1148" y="418" fill="#A8D1DB" font-size="24" font-weight="700">05</text>
    <text x="1051" y="490" fill="#F2F7FA" font-size="26" font-weight="600">Execution-ready output</text>

    <circle cx="1420" cy="410" r="44" fill="#102633" stroke="#6AA5B7"/>
    <text x="1398" y="418" fill="#A8D1DB" font-size="24" font-weight="700">06</text>
    <text x="1330" y="490" fill="#F2F7FA" font-size="26" font-weight="600">Compute consume</text>
  </g>
  <path d="M214 410H376" stroke="#7FB8C5" stroke-width="6" stroke-linecap="round"/>
  <path d="M464 410H626" stroke="#7FB8C5" stroke-width="6" stroke-linecap="round"/>
  <path d="M714 410H876" stroke="#7FB8C5" stroke-width="6" stroke-linecap="round"/>
  <path d="M964 410H1126" stroke="#7FB8C5" stroke-width="6" stroke-linecap="round"/>
  <path d="M1214 410H1376" stroke="#9FD1DF" stroke-width="6" stroke-linecap="round"/>
  <rect x="470" y="590" width="660" height="92" rx="20" fill="#10212C" stroke="#385567"/>
  <text x="510" y="630" fill="#A8D1DB" font-family="IBM Plex Sans, Arial, sans-serif" font-size="20" font-weight="600">Key point</text>
  <text x="510" y="662" fill="#F2F7FA" font-family="IBM Plex Sans, Arial, sans-serif" font-size="26">The gather path is a regularization path, not merely a retrieval path.</text>
</svg>
