<svg xmlns="http://www.w3.org/2000/svg" width="1400" height="820" viewBox="0 0 1400 820" fill="none">
  <rect width="1400" height="820" rx="32" fill="#0A1219"/>
  <rect x="44" y="44" width="1312" height="732" rx="26" fill="#0D1821" stroke="#253847"/>
  <text x="88" y="112" fill="#EAF2F6" font-family="IBM Plex Sans, Arial, sans-serif" font-size="36" font-weight="600">Prefix / Branch Ownership Diagram</text>
  <circle cx="200" cy="240" r="38" fill="#102633" stroke="#6AA5B7"/>
  <text x="160" y="248" fill="#F2F7FA" font-family="IBM Plex Sans, Arial, sans-serif" font-size="24">Root</text>
  <circle cx="420" cy="240" r="38" fill="#102633" stroke="#6AA5B7"/>
  <text x="374" y="248" fill="#F2F7FA" font-family="IBM Plex Sans, Arial, sans-serif" font-size="24">Prefix A</text>
  <circle cx="670" cy="240" r="38" fill="#102633" stroke="#6AA5B7"/>
  <text x="624" y="248" fill="#F2F7FA" font-family="IBM Plex Sans, Arial, sans-serif" font-size="24">Prefix B</text>
  <circle cx="530" cy="470" r="38" fill="#102633" stroke="#6AA5B7"/>
  <text x="478" y="478" fill="#F2F7FA" font-family="IBM Plex Sans, Arial, sans-serif" font-size="24">Branch 1</text>
  <circle cx="810" cy="470" r="38" fill="#102633" stroke="#6AA5B7"/>
  <text x="758" y="478" fill="#F2F7FA" font-family="IBM Plex Sans, Arial, sans-serif" font-size="24">Branch 2</text>
  <rect x="420" y="620" width="220" height="72" rx="16" fill="#152431" stroke="#355062"/>
  <text x="452" y="664" fill="#F2F7FA" font-family="IBM Plex Sans, Arial, sans-serif" font-size="24">Shared sealed objects</text>
  <rect x="700" y="620" width="240" height="72" rx="16" fill="#152431" stroke="#355062"/>
  <text x="734" y="664" fill="#F2F7FA" font-family="IBM Plex Sans, Arial, sans-serif" font-size="24">Branch-local suffixes</text>
  <path d="M238 240H382" stroke="#7FB8C5" stroke-width="5" stroke-linecap="round"/>
  <path d="M458 240H632" stroke="#7FB8C5" stroke-width="5" stroke-linecap="round"/>
  <path d="M650 268L560 434" stroke="#7FB8C5" stroke-width="5" stroke-linecap="round"/>
  <path d="M690 268L780 434" stroke="#7FB8C5" stroke-width="5" stroke-linecap="round"/>
</svg>
